# xmcd
#
# Track frame offsets: 
#        150
#        17607
#        45090
#        68872
#
# Disc length: 1267 seconds
#
# Revision: 0
# Processed by: cddbd v1.5.2PL0 Copyright (c) Steve Scherf et al.
# Submitted via: ExactAudioCopyFreeDBPlugin 1.0
#
DISCID=2404f104
DTITLE=Keith Sweat - Make You Sweat [CDM)
DYEAR=1990
DGENRE=Funk
TTITLE0=Make You Sweat (Edit Of LP Version)
TTITLE1=Make You Sweat (Extended Version)
TTITLE2=Make You Sweat (Club Beat)
TTITLE3=Make You Sweat (Instrumental)
EXTD=
EXTT0=
EXTT1=
EXTT2=
EXTT3=
PLAYORDER=
